<?xml version="1.0" standalone="no"?>
<!DOCTYPE svg PUBLIC "-//W3C//DTD SVG 20010904//EN"
 "http://www.w3.org/TR/2001/REC-SVG-20010904/DTD/svg10.dtd">
<svg version="1.0" xmlns="http://www.w3.org/2000/svg"
 width="821.000000pt" height="821.000000pt" viewBox="0 0 821.000000 821.000000"
 preserveAspectRatio="xMidYMid meet">
<metadata>
Created by potrace 1.11, written by Peter Selinger 2001-2013
</metadata>
<g transform="translate(0.000000,821.000000) scale(0.100000,-0.100000)"
fill="#000000" stroke="none">
<path d="M3308 7865 c-2 -2 -64 -6 -138 -9 -187 -9 -351 -21 -440 -31 -19 -2
-66 -7 -105 -10 -152 -14 -258 -25 -285 -30 -8 -2 -44 -6 -80 -10 -53 -5 -213
-31 -315 -50 -64 -11 -249 -58 -300 -76 -197 -68 -271 -139 -347 -334 -78
-198 -112 -397 -112 -650 1 -238 12 -377 39 -465 34 -109 51 -141 136 -260 45
-62 184 -305 218 -380 12 -28 16 -81 18 -265 1 -126 4 -248 6 -270 5 -38 1
-44 -57 -107 -75 -82 -74 -81 -113 -143 -47 -76 -76 -145 -81 -198 -4 -42 -1
-52 22 -76 32 -33 100 -50 213 -52 l73 -2 -8 -86 c-9 -105 -8 -473 1 -596 35
-476 151 -924 322 -1253 l54 -103 -27 2 c-15 2 -37 -3 -49 -11 l-21 -14 31
-27 c73 -64 210 -113 347 -125 41 -4 82 -12 90 -19 26 -21 48 -24 60 -10 9 10
38 14 106 14 52 0 111 3 131 6 l38 7 -35 -23 c-45 -29 -186 -89 -209 -89 -17
0 -51 -29 -51 -44 0 -20 32 -34 113 -50 141 -28 175 -31 322 -31 144 1 207 12
298 55 l37 18 -45 -50 c-46 -51 -48 -57 -46 -94 1 -12 -18 -82 -42 -155 -24
-74 -68 -231 -97 -349 -50 -207 -95 -371 -158 -585 -45 -155 -37 -200 58 -292
60 -59 185 -141 300 -199 133 -66 201 -91 285 -106 102 -19 142 -14 192 21
l44 31 25 -29 c13 -16 44 -37 67 -45 35 -14 238 -48 272 -47 32 2 226 33 306
49 307 64 350 75 497 118 75 22 100 35 136 68 39 37 46 51 75 156 30 109 92
418 106 525 3 28 10 77 15 110 6 33 10 89 10 125 0 36 4 92 10 125 5 33 11
123 14 200 4 123 1 167 -18 300 -4 30 -3 30 46 32 52 2 91 25 82 47 -3 7 -23
20 -45 30 -44 20 -48 33 -4 16 15 -6 81 -21 148 -35 95 -19 143 -24 222 -20
177 7 310 31 348 63 23 20 12 30 -76 67 -37 15 -66 29 -64 31 2 2 30 -1 63 -6
111 -19 273 -6 321 25 33 22 16 51 -34 57 -40 6 -187 68 -179 75 3 3 40 6 83
8 217 9 488 129 635 282 20 21 64 73 97 117 51 68 58 81 46 93 -12 12 -20 11
-57 -6 -135 -61 -218 -73 -323 -46 -98 26 -132 51 -168 124 -31 64 -32 69 -30
186 1 84 8 141 22 190 50 182 66 232 121 402 55 167 89 297 105 398 3 22 6
104 6 181 l0 142 67 44 c86 57 197 147 291 235 l73 68 -1 200 c-1 110 -3 220
-6 245 -19 213 -22 247 -30 300 -4 25 -8 54 -10 65 -18 135 -66 316 -112 425
-58 139 -107 221 -234 397 -41 56 -81 111 -89 123 -18 27 -103 136 -131 169
-12 14 -33 41 -47 60 -62 80 -251 272 -352 357 -52 43 -187 144 -212 159 -9 6
-48 29 -86 52 -108 66 -504 262 -633 314 -78 31 -325 118 -384 134 -74 22
-197 53 -225 59 -108 21 -193 36 -235 41 -27 3 -66 8 -85 11 -34 4 -828 13
-832 9z"/>
</g>
</svg>
